<?xml version="1.0" encoding="utf-8"?>
<!-- Generator: Adobe Illustrator 25.0.1, SVG Export Plug-In . SVG Version: 6.00 Build 0)  -->
<svg version="1.1"
	 id="Layer_1" xmlns:cc="http://creativecommons.org/ns#" xmlns:dc="http://purl.org/dc/elements/1.1/" xmlns:inkscape="http://www.inkscape.org/namespaces/inkscape" xmlns:rdf="http://www.w3.org/1999/02/22-rdf-syntax-ns#" xmlns:sodipodi="http://sodipodi.sourceforge.net/DTD/sodipodi-0.dtd" xmlns:svg="http://www.w3.org/2000/svg"
	 xmlns="http://www.w3.org/2000/svg" xmlns:xlink="http://www.w3.org/1999/xlink" x="0px" y="0px" viewBox="0 0 100 125"
	 style="enable-background:new 0 0 100 125;" xml:space="preserve">
<g transform="translate(0,-952.36218)">
	<path d="M50,958.4c-15.4,0-28,12.6-28,28c0,6.9,2.5,13.2,6.6,18.1l-17.3,29.9c-0.6,1-0.2,2.2,0.7,2.7c0.4,0.2,0.8,0.3,1.2,0.3
		l9.7-0.9l4.4,8.3c0.5,1,1.7,1.4,2.7,0.9c0.4-0.2,0.6-0.5,0.8-0.8l17.4-30.5c0.6,0,1.2,0.1,1.8,0.1s1.2,0,1.8-0.1l17.4,30.5
		c0.5,1,1.8,1.3,2.7,0.8c0.3-0.2,0.6-0.5,0.8-0.8l4.4-8.3l9.7,0.9c1.1,0.1,2.1-0.7,2.2-1.8c0-0.4-0.1-0.8-0.3-1.2l-17.3-29.9
		c4.1-4.9,6.6-11.2,6.6-18.1C78,970.9,65.4,958.4,50,958.4z M50,962.4c13.3,0,24,10.7,24,24s-10.7,24-24,24s-24-10.7-24-24
		S36.7,962.4,50,962.4z M50,965.4c-11.6,0-21,9.4-21,21s9.4,21,21,21s21-9.4,21-21S61.6,965.4,50,965.4z M50,969.4
		c9.4,0,17,7.6,17,17s-7.6,17-17,17s-17-7.6-17-17S40.6,969.4,50,969.4z M49.8,972.4c-0.7,0.1-1.3,0.5-1.6,1.1l-3.3,6.3l-7.3,1
		c-1.1,0.2-1.9,1.2-1.7,2.3c0.1,0.5,0.3,0.9,0.6,1.2l5.2,4.9l-1.2,6.9c-0.2,1.1,0.5,2.1,1.6,2.3c0.4,0.1,0.9,0,1.3-0.2l6.5-3.3
		l6.5,3.3c1,0.5,2.2,0.1,2.7-0.9c0.2-0.4,0.3-0.8,0.2-1.3l-1.2-6.9l5.2-4.9c0.8-0.8,0.8-2,0.1-2.8c-0.3-0.3-0.7-0.5-1.2-0.6l-7.3-1
		l-3.3-6.3C51.4,972.7,50.6,972.3,49.8,972.4z M50,978.7l1.9,3.8c0.3,0.6,0.9,1,1.5,1.1l4.1,0.6l-2.9,2.8c-0.5,0.5-0.7,1.1-0.6,1.8
		l0.7,4l-3.8-1.9c-0.6-0.3-1.2-0.3-1.8,0l-3.8,1.9l0.7-4c0.1-0.7-0.1-1.3-0.6-1.8l-2.9-2.8l4.1-0.6c0.6-0.1,1.2-0.5,1.5-1.1
		L50,978.7z M31.5,1007.4c1.3,1.1,2.7,2.1,4.1,3l-12.9,22.1l-6.1,0.6L31.5,1007.4z M68.5,1007.4l14.9,25.6l-6.1-0.6l-12.9-22.1
		C65.8,1009.5,67.2,1008.5,68.5,1007.4z M39.2,1012.2c1.5,0.6,3.1,1.1,4.7,1.5l-14.9,26l-2.8-5.3L39.2,1012.2z M60.8,1012.2
		l12.9,22.2l-2.8,5.3l-14.9-26C57.7,1013.3,59.3,1012.8,60.8,1012.2z"/>
</g>
</svg>
