<?xml version="1.0" standalone="no"?>
<!DOCTYPE svg PUBLIC "-//W3C//DTD SVG 20010904//EN"
 "http://www.w3.org/TR/2001/REC-SVG-20010904/DTD/svg10.dtd">
<svg version="1.0" xmlns="http://www.w3.org/2000/svg"
 width="1042.000000pt" height="1042.000000pt" viewBox="0 0 1042.000000 1042.000000"
 preserveAspectRatio="xMidYMid meet">

<g transform="translate(0.000000,1042.000000) scale(0.100000,-0.100000)"
fill="#000000" stroke="none">
<path d="M5155 10395 c-16 -8 -1132 -868 -2479 -1912 -1840 -1426 -2454 -1907
-2468 -1933 -17 -34 -18 -137 -16 -3232 l3 -3197 21 -28 c11 -15 36 -38 54
-51 l33 -22 1695 0 1694 0 38 21 c20 11 45 35 56 52 18 31 19 83 24 1867 l5
1835 1415 0 1415 0 5 -1840 5 -1840 22 -31 c49 -69 -91 -64 1783 -64 1874 0
1722 -6 1777 67 l28 36 3 3190 c2 3083 2 3190 -16 3230 -17 38 -280 244 -2471
1941 -1349 1044 -2465 1904 -2480 1912 -33 18 -107 17 -146 -1z m2441 -2175
l2354 -1825 0 -3032 0 -3033 -1492 2 -1493 3 -5 1835 c-5 1784 -6 1836 -24
1867 -11 17 -36 41 -56 52 l-38 21 -1612 0 c-1785 0 -1654 5 -1703 -64 l-22
-31 -5 -1840 -5 -1840 -1492 -3 -1493 -2 0 3033 0 3034 2357 1826 c1297 1005
2361 1826 2366 1824 5 -1 1068 -824 2363 -1827z"/>
</g>
</svg>
